# xmcd
#
# Track frame offsets:
#	151
#	19404
#	39740
#	61287
#	86606
#	105523
#	123855
#	143896
#	160093
#	181624
#	203590
#	220231
#	236047
#	254114
#	275635
#
# Disc length: 4003 seconds
#
# Revision: 2
# Processed by: cddbd v1.5.1PL0 Copyright (c) Steve Scherf et al.
# Submitted via: audiograbber 1.83.01
#
DISCID=d60fa10f
DTITLE=Mean Gene Kelton - Most Requested
DYEAR=2000
DGENRE=Blues
TTITLE0=Texas Honey
TTITLE1=Too White to play the Blues
TTITLE2=If this guitar could talk
TTITLE3=Tears on my guitar
TTITLE4=Going back to Memphis
TTITLE5=Cruisin' Texas Avenue
TTITLE6=Sinking Deeper (into the Blues)
TTITLE7=Big legged mama
TTITLE8=Leaving paradies (Goodbye Louisiana)
TTITLE9=The Avon Man
TTITLE10=Little black dress
TTITLE11=My blow up lover
TTITLE12=Let me pump your gas
TTITLE13=The Texas City dyke
TTITLE14=My Baby don't wear no panties
EXTD=YEAR: 2000 ID3G:   0
EXTT0=
EXTT1=
EXTT2=
EXTT3=
EXTT4=
EXTT5=
EXTT6=
EXTT7=
EXTT8=
EXTT9=
EXTT10=
EXTT11=
EXTT12=
EXTT13=
EXTT14=
PLAYORDER=
